<svg id="Lag_1" data-name="Lag 1" xmlns="http://www.w3.org/2000/svg" xmlns:xlink="http://www.w3.org/1999/xlink" viewBox="0 0 270.53 33.61"><defs><style>.cls-1{fill:none;}.cls-2{clip-path:url(#clip-path);}.cls-3{fill:#e5007e;}.cls-4{fill:#fff;}.cls-5{fill:#003974;}</style><clipPath id="clip-path"><rect class="cls-1" width="33.61" height="33.61"/></clipPath></defs><g class="cls-2"><path class="cls-3" d="M16.81,33.61A16.81,16.81,0,1,0,0,16.81a16.8,16.8,0,0,0,16.81,16.8"/><path class="cls-4" d="M10.4,26.27H18c4.2,0,6.87-2,6.87-5.46a4.23,4.23,0,0,0-3.64-4.32v-.06a4.12,4.12,0,0,0,3-4.16c0-2.87-2.27-4.8-6.47-4.8H10.4ZM14.66,23V18h2.68c1.92,0,2.89.88,2.89,2.57S19.2,23,17.3,23Zm0-7.91V10.7h2.58c1.87,0,2.71.84,2.71,2.14s-.81,2.29-2.74,2.29Z"/></g><path class="cls-5" d="M53.76,18h6v2.82c0,2.62-.68,4.62-2.06,6a7.82,7.82,0,0,1-5.76,2,7.89,7.89,0,0,1-5.78-2,8,8,0,0,1-2.07-6V12.73a8,8,0,0,1,2.07-6,7.85,7.85,0,0,1,5.78-2,7.82,7.82,0,0,1,5.77,2q2.06,2,2.05,6v2.55h-6V12.5a3.68,3.68,0,0,0-.47-2.13,1.61,1.61,0,0,0-1.37-.63,1.63,1.63,0,0,0-1.37.64,3.6,3.6,0,0,0-.48,2.12v8.61a3.67,3.67,0,0,0,.47,2.12,1.61,1.61,0,0,0,1.38.64,1.59,1.59,0,0,0,1.37-.64,3.67,3.67,0,0,0,.47-2.12Z"/><path class="cls-5" d="M73.67,23.31v5H61.89v-23h6v18Z"/><path class="cls-5" d="M74.06,28.32l3-23h9.4l3.06,23H83.9l-.37-3.63H80.09l-.37,3.63Zm6.54-8.38H83L81.8,8.49Z"/><path class="cls-5" d="M90.86,28.32v-23h8a7.72,7.72,0,0,1,5,1.57,5.36,5.36,0,0,1,1.92,4.41v.87a5.78,5.78,0,0,1-.88,3.24,5.58,5.58,0,0,1-2.44,2l3.84,10.9H100L96.72,17V28.32ZM98,10H96.72V15.7H98A1.7,1.7,0,0,0,99.44,15a3.38,3.38,0,0,0,.51-2v-.53C100,10.84,99.3,10,98,10Z"/><path class="cls-5" d="M106.6,28.32l3.05-23h9.4l3.06,23h-5.67l-.38-3.63h-3.43l-.37,3.63Zm6.54-8.38h2.4l-1.2-11.45Z"/><path class="cls-5" d="M139.83,28.32V19h-3.69v9.34h-6v-23h6V14h3.69V5.29h6v23Z"/><path class="cls-5" d="M147.13,28.32l3.05-23h9.4l3.06,23H157l-.37-3.63h-3.44l-.37,3.63Zm6.54-8.38h2.4l-1.2-11.45Z"/><path class="cls-5" d="M175.71,23.31v5H163.93v-23h6v18Z"/><path class="cls-5" d="M190.53,5.29l-3.06,23h-9.4l-3-23h5.66l2.08,19.84,2.1-19.84Z"/><path class="cls-5" d="M205,26.85a9.24,9.24,0,0,1-11.56,0,8.09,8.09,0,0,1-2.06-6V12.73a8,8,0,0,1,2.06-6,9.24,9.24,0,0,1,11.56,0q2.06,2,2.05,6v8.13Q207,24.81,205,26.85Zm-7.15-3.62a1.61,1.61,0,0,0,1.38.64,1.59,1.59,0,0,0,1.37-.64,3.67,3.67,0,0,0,.47-2.12V12.5a3.68,3.68,0,0,0-.47-2.13,1.61,1.61,0,0,0-1.37-.63,1.63,1.63,0,0,0-1.37.64,3.6,3.6,0,0,0-.48,2.12v8.61A3.67,3.67,0,0,0,197.82,23.23Z"/><path class="cls-5" d="M209.17,28.32v-23h8a7.73,7.73,0,0,1,5.06,1.57,5.36,5.36,0,0,1,1.92,4.41v.87a5.86,5.86,0,0,1-.88,3.24,5.63,5.63,0,0,1-2.44,2l3.84,10.9h-6.42L215,17V28.32ZM216.32,10H215V15.7h1.29a1.68,1.68,0,0,0,1.42-.68,3.38,3.38,0,0,0,.51-2v-.53C218.25,10.84,217.61,10,216.32,10Z"/><path class="cls-5" d="M225.56,11.12a7.47,7.47,0,0,1,.52-2.9,5,5,0,0,1,1.47-2,6.53,6.53,0,0,1,2.14-1.12,9,9,0,0,1,2.63-.36,8.33,8.33,0,0,1,3.41.66,5.46,5.46,0,0,1,2.4,2.07,6.19,6.19,0,0,1,.91,3.41v1.79h-5.43V11a2,2,0,0,0-.34-1.26,1.12,1.12,0,0,0-1-.43,1.22,1.22,0,0,0-.9.33,1.26,1.26,0,0,0-.33.93,2.44,2.44,0,0,0,.45,1.55,10.05,10.05,0,0,0,1.68,1.54l.3.22L236,15.79a9.54,9.54,0,0,1,2.48,2.76,7.19,7.19,0,0,1,.88,3.66,6.83,6.83,0,0,1-1,3.69,5.8,5.8,0,0,1-2.51,2.26,8.28,8.28,0,0,1-3.53.72,8.49,8.49,0,0,1-3.53-.71,5.8,5.8,0,0,1-3.44-5.47V20.65h5.53v1.84a2.06,2.06,0,0,0,.4,1.34,1.24,1.24,0,0,0,1,.5A1.45,1.45,0,0,0,233.4,24a1.37,1.37,0,0,0,.39-1,3.1,3.1,0,0,0,0-.54q-.06-.26-.12-.45a1.51,1.51,0,0,0-.22-.41l-.27-.36a2.85,2.85,0,0,0-.39-.38l-.43-.37-.54-.42-.59-.46-2.37-1.88a8.84,8.84,0,0,1-2.44-2.76A8,8,0,0,1,225.56,11.12Z"/><path class="cls-5" d="M240.94,28.32v-23h11.95v5H246.8v3.84h5.48v5H246.8v4.19h6.09v5Z"/><path class="cls-5" d="M270.53,5.29v23H262.2L259.5,8.64V28.32h-4.63v-23h8.29l2.73,19.34V5.29Z"/></svg>